<?xml version="1.0" standalone="no"?><!DOCTYPE svg PUBLIC "-//W3C//DTD SVG 1.1//EN" "http://www.w3.org/Graphics/SVG/1.1/DTD/svg11.dtd"><svg t="1496348357009" class="icon" style="" viewBox="0 0 1024 1024" version="1.1" xmlns="http://www.w3.org/2000/svg" p-id="11287" xmlns:xlink="http://www.w3.org/1999/xlink" width="200" height="200"><defs><style type="text/css"></style></defs><path d="M391.795291 609.379864c50.276057 41.095977 107.252723 55.529711 170.546258 37.793768 46.226834-12.95915 81.96478-41.504276 110.1057-79.682807 38.814004-52.65422 55.540967-112.503307 56.149834-177.344081 0.096191-29.363771-3.725858-58.182121-11.878538-86.35681-15.611559-53.982472-42.651402-101.087303-87.630826-135.76715-61.730946-47.608298-128.977513-56.272631-199.718671-22.055318-44.699038 21.620413-76.464509 57.350173-98.924034 100.987019-37.686321 73.227792-44.036959 150.073994-22.51683 229.121328C322.282101 528.823154 349.090677 574.464657 391.795291 609.379864zM366.069373 266.916119c13.20986-26.704199 31.269168-49.79101 54.744835-68.396763 56.672744-44.910862 129.015376-44.360324 184.883801 1.593288 35.199687 28.960589 56.965409 66.657142 70.044286 109.762893 7.91732 26.092261 11.616572 52.858882 11.520381 80.152505-0.476861 56.465013-14.560624 108.808148-48.250934 154.85795-22.37459 30.588669-50.702776 53.80544-87.672782 64.329121-51.296293 14.58416-96.695273 1.558495-136.409786-32.524764-34.264385-29.402657-55.406914-67.323315-67.135026-110.420879C329.141322 397.679301 334.394976 330.948481 366.069373 266.916119zM865.808118 711.602014c-42.63196-67.465554-104.123452-102.719476-184.222745-104.59315-14.160511-0.323365-24.426319 9.807367-24.641213 23.344684-0.211824 13.417591 7.655354 20.030196 21.620413 20.60734 5.377474 0.223081 10.79281 0.200568 16.123212 0.900509 59.040674 7.766894 103.031585 36.526915 131.418099 91.992157 12.605086 24.610514 19.929912 57.500599 20.22667 85.533049 0.096191 9.395998-2.987031 17.051351-10.277064 22.589484-5.134951 3.911076-11.000542 4.757351-17.136286 4.757351-203.645097-0.023536-408.833339-0.023536-612.477412-0.023536-0.954745 0-1.905396 0.023536-2.851954-0.019443-14.580067-0.588401-24.625864-11.431354-24.422226-26.943652 0.092098-7.540743 0.539282-15.145955 1.666966-22.582321 10.130731-66.768683 44.837184-119.54263 103.161544-146.259108 19.549242-8.964162 40.302915-12.3247 61.545728-12.844539 16.666588-0.404206 26.107611-9.453303 20.965497-24.937972-3.341095-10.053983-12.136412-16.173354-23.62507-16.166191-38.178531 0.01535-74.016761 9.322319-106.779955 28.821419-59.436694 35.368532-95.051843 87.318718-106.07899 155.769716-1.446955 8.979512-1.970888 18.102287-2.917446 27.16264 0 2.240017 0 4.488221 0 6.735401 0.308015 1.543146 0.750083 3.075035 0.896416 4.641717 1.378393 14.995529 7.001461 28.248368 16.824177 39.572274 15.353686 17.701151 34.960233 25.357528 58.328453 25.338085 206.053959-0.135076 412.107919-0.080841 618.170065-0.080841 2.082428 0 4.164856-0.01535 6.250354-0.096191 38.779212-1.385557 69.074192-32.520671 69.313645-71.337745C897.139707 783.25903 887.266849 745.543034 865.808118 711.602014z" p-id="11288" fill="#cdcdcd"></path></svg>