<?xml version="1.0" standalone="no"?><!DOCTYPE svg PUBLIC "-//W3C//DTD SVG 1.1//EN" "http://www.w3.org/Graphics/SVG/1.1/DTD/svg11.dtd"><svg t="1496347779887" class="icon" style="" viewBox="0 0 1024 1024" version="1.1" xmlns="http://www.w3.org/2000/svg" p-id="6090" xmlns:xlink="http://www.w3.org/1999/xlink" width="200" height="200"><defs><style type="text/css"></style></defs><path d="M272.177959 531.273972c-0.083911-13.652951 14.658861-28.713972 28.05087-28.655643 13.32447 0.057305 28.14092 15.307637 27.976168 28.795836-0.165776 13.608949-15.316847 28.815279-28.365025 28.467355C286.519596 559.52541 272.260847 544.780591 272.177959 531.273972z" p-id="6091"></path><path d="M447.033359 283.07924m-61.155848 0a59.763 59.763 0 1 0 122.311697 0 59.763 59.763 0 1 0-122.311697 0Z" p-id="6092"></path><path d="M300.19199 533.073968m-29.093619 0a28.431 28.431 0 1 0 58.187237 0 28.431 28.431 0 1 0-58.187237 0Z" p-id="6093"></path><path d="M646.608767 745.324046m-15.514345 0a15.161 15.161 0 1 0 31.028691 0 15.161 15.161 0 1 0-31.028691 0Z" p-id="6094"></path><path d="M97.479125 511.73394c-0.49528 55.841819 9.174963 109.813035 30.238698 161.442926 15.554254 38.125319 36.351929 73.206302 62.5895 104.910375 17.153682 20.727067 36.010145 39.721677 56.086389 57.512878 6.27696 5.561669 15.374152 6.17156 22.021549 1.321088 76.108399-55.541991 151.311171-112.285343 222.485187-174.263929 72.931033-63.508429 142.175093-130.822534 204.840318-204.859761 57.392128-67.807339 112.134917-137.720641 161.869644-211.492832 18.570961-27.54638 34.412764-56.806797 45.141106-88.594781 4.53734-13.444197 4.856611-27.269064 3.348258-41.146119-1.249457-11.494799-14.880919-22.832008-26.297946-23.549346-14.672164-0.921999-28.146037 2.5071-41.032532 9.29776-5.288446 2.786463-10.741645 5.275143-16.21531 7.674796-6.780427 2.972705-12.665461 1.01819-15.156188-4.782933-2.874467-6.696516-0.856507-12.861936 5.877871-15.752776 14.683421-6.30152 29.256324-13.042037 44.36237-18.111496 20.331048-6.823406 39.118949-1.124614 55.369052 11.803837 9.238408 7.349385 12.906961 18.796088 15.833617 30.196743 5.053086 19.690458 0.054235 38.185694-6.473435 56.399521-9.834996 27.438932-23.558555 52.971445-38.422078 77.894068-4.718465 7.912204-4.734838 15.632025 0.188288 23.399943 35.215036 55.57269 56.822147 116.28647 66.680678 181.38614 4.069689 26.867928 5.756097 53.973262 4.003174 81.074503-5.16872 79.899748-28.357861 153.99121-71.170946 221.593887-39.047318 61.655222-90.447988 109.859084-153.49286 145.67787-49.15963 27.930119-101.795431 45.220924-157.355841 53.664224-24.604374 3.739161-49.441039 5.4225-74.314543 4.14746-47.3801-2.428306-93.355201-12.075013-137.88437-28.711925-33.17047-12.393261-64.178695-29.018917-93.674473-48.654117-6.954389-4.629437-14.446014-4.635577-21.372773-0.48607-22.38994 13.413498-45.12371 26.131147-69.190849 36.21276-15.838733 6.634094-32.113395 11.952216-49.429783 12.605086-15.331173 0.577145-29.586852-3.606131-41.709961-13.042037-10.726296-8.348132-15.133675-20.794605-18.110473-33.746592-2.742461-11.929704-0.410346-23.424502 3.370771-34.596959 12.348236-36.481889 30.977525-69.626777 53.414537-100.630908 3.635807-5.024433 5.931083-10.04375 4.854565-16.216333-0.493234-2.829442-1.082658-5.807263-2.400676-8.300037-16.659425-31.519878-29.646204-64.494896-38.419008-99.122555-10.846022-42.811038-16.473183-86.286202-14.223956-130.511449 2.582825-50.768267 12.957103-99.955526 31.882128-147.107429 24.964578-62.200644 60.832484-117.146047 110.088304-162.302503 60.371996-55.347562 130.706901-91.783403 210.712049-108.12458 20.497846-4.186346 41.396829-6.978948 62.248739-8.652054 60.520375-4.854565 118.882598 6.198166 175.738513 26.657126 8.79941 3.166109 17.422811 6.850012 26.061562 10.458189 6.665817 2.784416 9.31004 8.701173 6.965645 14.973016-2.344395 6.27389-8.118911 8.56405-15.146978 6.104021-20.081361-7.031137-39.932478-14.865569-60.311621-20.865213-43.887556-12.920264-89.033779-15.528672-134.372384-13.112646-59.289338 3.158946-115.386984 18.810415-167.939897 47.063899-40.315194 21.674649-75.519997 50.002834-107.175975 83.141582-34.951023 36.586267-62.579267 78.0711-82.551134 124.741026-12.735046 29.759791-21.448498 60.750619-26.743084 92.728938C99.178837 463.129966 97.262184 487.348554 97.479125 511.73394zM930.436044 509.661745c0.527003-28.251438-2.406816-57.94983-8.637728-87.294159-8.662287-40.793078-22.542412-79.636758-43.266409-115.805516-2.371-4.137227-5.942339-7.680936-9.397021-11.036357-2.64934-2.574638-12.916171-1.937119-15.531741 0.659009-2.871397 2.850931-5.713119 5.79089-8.163937 9.007141-27.007097 35.452443-53.561893 71.26509-80.97115 106.395192-42.459021 54.4184-87.387279 106.708324-135.796826 155.818835-49.993624 50.719148-102.583376 98.637508-157.848051 143.351895-47.653323 38.556131-96.739275 75.295893-145.143705 112.903419-11.122315 8.641821-22.137183 17.432021-32.959669 26.450419-1.698688 1.415232-2.517333 4.322445-3.039219 6.698562-2.009773 9.149381 4.297886 14.123672 10.468422 18.009166 38.59297 24.292266 80.493266 40.404222 124.788098 50.254567 40.703027 9.052167 81.903382 10.363022 123.349329 7.78736 31.911804-1.982144 62.97017-8.447393 93.375667-18.157545 58.872852-18.801205 110.366643-50.259684 155.347091-92.955088 40.373523-38.322817 73.459059-82.025155 96.54587-133.095297C918.978085 632.420627 931.492096 573.3513 930.436044 509.661745zM124.576273 905.239176c12.441357 0.63138 24.588001-1.437745 35.860742-6.483668 16.933671-7.579629 33.522488-15.965623 50.109258-24.311709 3.657296-1.840928 6.951319-4.670369 9.958816-7.53358 6.039553-5.748934 5.762237-14.905478-0.086981-21.046339-14.320147-15.035438-28.779464-29.946033-42.745547-45.314045-7.949043-8.747221-15.064091-18.274202-22.50148-27.494191-2.231831-2.765997-4.997827-3.39226-8.451486-3.654226-5.689582-0.430812-10.042727 1.207501-13.438057 5.791913-1.733481 2.341325-3.978614 4.358261-5.393847 6.867408-8.379854 14.865569-16.993023 29.618575-24.733311 44.823881-7.9296 15.576767-13.651928 31.67849-13.57518 49.929156 0.055259 13.19451 14.43885 28.445866 25.803689 28.426423C118.446669 905.234059 121.511471 905.239176 124.576273 905.239176z" p-id="6095"></path></svg>