<?xml version="1.0" standalone="no"?><!DOCTYPE svg PUBLIC "-//W3C//DTD SVG 1.1//EN" "http://www.w3.org/Graphics/SVG/1.1/DTD/svg11.dtd"><svg t="1496347935013" class="icon" style="" viewBox="0 0 1024 1024" version="1.1" xmlns="http://www.w3.org/2000/svg" p-id="9068" xmlns:xlink="http://www.w3.org/1999/xlink" width="200" height="200"><defs><style type="text/css"></style></defs><path d="M955.050 518.179l-443.037-414.642-443.037 413.425c-8.663 8.090-9.15 21.693-1.044 30.355 8.090 8.663 21.693 9.15 30.355 1.044l413.697-386.033 413.712 387.207c4.151 3.879 9.422 5.799 14.676 5.799 5.728 0 11.455-2.276 15.679-6.802 8.105-8.663 7.661-22.251-1.003-30.355zM819.852 526.699c-11.856 0-21.477 9.622-21.477 21.477v329.332h-171.826v-229.101h-229.101v229.101h-171.826v-329.332c0-11.856-9.609-21.477-21.477-21.477s-21.477 9.622-21.477 21.477v372.288h257.738v-229.101h143.188v229.101h257.738v-372.288c0-11.856-9.623-21.477-21.479-21.477zM669.505 218.847h128.869v114.549c0 11.871 9.622 21.477 21.477 21.477s21.477-9.609 21.477-21.477v-157.506h-171.826c-11.856 0-21.477 9.609-21.477 21.477s9.623 21.477 21.479 21.477z" p-id="9069" fill="#2BB4B4"></path></svg>